<svg xmlns="http://www.w3.org/2000/svg" width="320" height="124" viewBox="0 0 320 124">
    <defs>
        <linearGradient id="a" x1="-3471.98%" x2="7706.51%" y1="-2252.94%" y2="4959.69%">
            <stop offset="0%" stop-color="#5BE2FF"/>
            <stop offset="100%" stop-color="#006AFF"/>
        </linearGradient>
    </defs>
    <g fill="none" fill-rule="nonzero">
        <g fill="#A6A6BC">
            <path d="M165.5 79.9c-.5 0-.9.1-1.2.3-.3.2-.5.5-.5.9s.2.7.5.9c.3.2.9.4 1.9.7 1 .2 1.7.6 2.2 1 .5.4.7 1.1.7 1.9 0 .8-.3 1.5-.9 2-.6.5-1.5.8-2.5.8-1.5 0-2.8-.5-4-1.6l1-1.2c1 .8 2 1.3 3 1.3.5 0 .9-.1 1.2-.3.3-.2.5-.5.5-.9s-.1-.7-.4-.9c-.3-.2-.8-.4-1.5-.6-.7-.2-1.2-.3-1.6-.5-.4-.2-.7-.3-1-.6-.6-.4-.9-1.1-.9-2 0-.9.3-1.6 1-2.1.6-.5 1.4-.7 2.4-.7.6 0 1.2.1 1.8.3.6.2 1.1.5 1.6.9l-.9 1.2c-.3-.3-.7-.5-1.2-.6-.3-.1-.8-.2-1.2-.2zM177.9 85.3h-5.7c0 .5.3 1 .7 1.3.4.3 1 .5 1.5.5.9 0 1.6-.3 2.1-.9l.9 1c-.8.8-1.8 1.2-3.1 1.2-1 0-1.9-.3-2.6-1-.7-.7-1.1-1.6-1.1-2.7s.4-2.1 1.1-2.7c.7-.7 1.6-1 2.6-1s1.8.3 2.5.9c.7.6 1 1.4 1 2.5v.9h.1zm-5.7-1.2h4.2c0-.6-.2-1.1-.6-1.4-.4-.3-.9-.5-1.4-.5-.5 0-1.1.2-1.5.5-.5.3-.7.8-.7 1.4zM186.6 85.3h-5.7c0 .5.3 1 .7 1.3.4.3 1 .5 1.5.5.9 0 1.6-.3 2.1-.9l.9 1c-.8.8-1.8 1.2-3.1 1.2-1 0-1.9-.3-2.6-1-.7-.7-1.1-1.6-1.1-2.7s.4-2.1 1.1-2.7c.7-.7 1.6-1 2.6-1s1.8.3 2.5.9c.7.6 1 1.4 1 2.5v.9h.1zm-5.8-1.2h4.2c0-.6-.2-1.1-.6-1.4-.4-.3-.9-.5-1.4-.5-.6 0-1.1.2-1.5.5-.4.3-.7.8-.7 1.4zM194.1 87.3c-.7-.7-1-1.6-1-2.7s.4-2 1.1-2.7c.7-.7 1.5-1 2.5-1s1.8.4 2.4 1.2v-4h1.5v10.2h-1.5v-1.1c-.6.8-1.4 1.2-2.5 1.2-1 0-1.8-.4-2.5-1.1zm.5-2.7c0 .7.2 1.3.7 1.7.4.4 1 .7 1.6.7.6 0 1.1-.2 1.5-.7.4-.5.6-1 .6-1.7s-.2-1.3-.6-1.7c-.4-.5-.9-.7-1.6-.7-.6 0-1.1.2-1.6.7-.4.5-.6 1-.6 1.7zM209.7 85.3H204c0 .5.3 1 .7 1.3.4.3 1 .5 1.5.5.9 0 1.6-.3 2.1-.9l.9 1c-.8.8-1.8 1.2-3.1 1.2-1 0-1.9-.3-2.6-1-.7-.7-1.1-1.6-1.1-2.7s.4-2.1 1.1-2.7c.7-.7 1.6-1 2.6-1s1.8.3 2.5.9c.7.6 1 1.4 1 2.5v.9h.1zm-5.7-1.2h4.2c0-.6-.2-1.1-.6-1.4-.4-.3-.9-.5-1.4-.5-.5 0-1.1.2-1.5.5-.5.3-.7.8-.7 1.4zM213.4 82.2v3.7c0 .3.1.6.3.8.2.2.4.3.8.3.3 0 .6-.2.9-.5l.6 1.1c-.5.5-1.1.7-1.8.7s-1.2-.2-1.7-.7c-.5-.5-.7-1.1-.7-1.8v-3.7h-.9V81h.9v-2.3h1.5V81h1.9v1.2h-1.8zM223.3 88.3h-1.4v-1c-.6.7-1.4 1.1-2.4 1.1-.8 0-1.4-.2-1.9-.6-.5-.4-.7-1-.7-1.7s.3-1.3.8-1.6c.5-.4 1.2-.5 2.2-.5h2v-.3c0-1-.5-1.5-1.6-1.5-.7 0-1.4.2-2.1.7l-.7-1c.9-.7 1.9-1.1 3-1.1.9 0 1.6.2 2.1.7.5.4.8 1.1.8 2.1v4.7h-.1zm-1.5-2.8v-.6h-1.7c-1.1 0-1.7.3-1.7 1 0 .4.1.6.4.8.3.2.7.3 1.1.3.5 0 .9-.1 1.3-.4.4-.2.6-.6.6-1.1zM225.7 79.5c-.2-.2-.3-.4-.3-.7 0-.3.1-.5.3-.7.2-.2.4-.3.7-.3.3 0 .5.1.7.3.2.2.3.4.3.7 0 .3-.1.5-.3.7-.2.2-.4.3-.7.3-.2 0-.5-.1-.7-.3zm1.5 8.8h-1.5V81h1.5v7.3zM231.1 88.3h-1.5V78.1h1.5zM240.5 80.4v.6h1.9v1.2h-1.9v6.1H239v-6.1h-.9V81h.9v-.6c0-.8.2-1.4.7-1.8.5-.5 1-.7 1.7-.7s1.3.2 1.8.7l-.6 1.1c-.3-.3-.6-.5-.9-.5-.3 0-.6.1-.8.3-.3.2-.4.5-.4.9zM247.9 82.4c-.8 0-1.3.2-1.7.7-.4.5-.6 1.2-.6 2v3.1h-1.5V81h1.5v1.5c.2-.5.6-.8 1-1.1.4-.3.9-.4 1.4-.5l-.1 1.5zM255.6 87.3c-.7.7-1.6 1.1-2.7 1.1s-2-.4-2.7-1.1c-.7-.7-1.1-1.6-1.1-2.7s.4-1.9 1.1-2.7c.7-.7 1.6-1.1 2.7-1.1s2 .4 2.7 1.1c.7.7 1.1 1.6 1.1 2.7s-.3 2-1.1 2.7zm-4.4-1c.4.4 1 .7 1.7.7s1.2-.2 1.7-.7c.4-.4.7-1 .7-1.7s-.2-1.3-.7-1.7c-.4-.4-1-.7-1.7-.7s-1.2.2-1.7.7c-.4.4-.7 1-.7 1.7.1.7.3 1.3.7 1.7zM260.2 84.3v4h-1.5V81h1.5v1.3c.2-.4.6-.8 1-1.1.4-.3.9-.4 1.4-.4 1.2 0 1.9.5 2.3 1.4.7-1 1.6-1.4 2.7-1.4.8 0 1.5.3 2 .8s.8 1.2.8 2.2v4.5h-1.5v-4c0-1.3-.6-2-1.7-2-.5 0-1 .2-1.4.5-.4.3-.6.8-.6 1.5v4.1h-1.5v-4c0-.7-.1-1.2-.4-1.5-.2-.3-.6-.5-1.2-.5-.5 0-1 .2-1.4.5-.3.2-.5.7-.5 1.4zM284.6 81v6.4c0 1.3-.4 2.3-1.1 2.9-.7.6-1.6 1-2.7 1s-2.1-.3-3-1l.7-1.2c.7.5 1.4.8 2.2.8.7 0 1.3-.2 1.7-.6.4-.4.6-1 .6-1.8v-.9c-.2.4-.6.8-1 1-.4.3-.9.4-1.4.4-1 0-1.8-.3-2.4-1-.6-.7-.9-1.5-.9-2.5s.3-1.9.9-2.5c.6-.7 1.4-1 2.4-1s1.8.4 2.4 1.2V81h1.6zm-5.7 3.3c0 .6.2 1.1.6 1.6.4.4.9.7 1.5.7s1.1-.2 1.5-.6c.4-.4.6-.9.6-1.6 0-.6-.2-1.2-.6-1.6-.4-.4-.9-.7-1.5-.7s-1.1.2-1.5.7c-.4.4-.6.9-.6 1.5zM288.5 88.3H287V78.1h1.5zM297 87.3c-.7.7-1.6 1.1-2.7 1.1s-2-.4-2.7-1.1c-.7-.7-1.1-1.6-1.1-2.7s.4-1.9 1.1-2.7c.7-.7 1.6-1.1 2.7-1.1s2 .4 2.7 1.1c.7.7 1.1 1.6 1.1 2.7s-.3 2-1.1 2.7zm-4.4-1c.4.4 1 .7 1.7.7s1.2-.2 1.7-.7c.4-.4.7-1 .7-1.7s-.2-1.3-.7-1.7c-.4-.4-1-.7-1.7-.7s-1.2.2-1.7.7c-.4.4-.7 1-.7 1.7.1.7.3 1.3.7 1.7zM303.9 80.8c1 0 1.8.3 2.5 1s1 1.6 1 2.7-.3 2-1 2.7c-.7.7-1.5 1.1-2.4 1.1-.9 0-1.7-.4-2.5-1.2v1.1H300V78h1.5v4.2c.7-.9 1.4-1.4 2.4-1.4zm-2.4 3.8c0 .7.2 1.3.6 1.7.4.4.9.7 1.5.7s1.1-.2 1.6-.7c.4-.4.7-1 .7-1.7s-.2-1.3-.7-1.7c-.4-.5-1-.7-1.6-.7-.6 0-1.1.2-1.6.7-.3.4-.5 1-.5 1.7zM315.3 88.3h-1.4v-1c-.6.7-1.4 1.1-2.4 1.1-.8 0-1.4-.2-1.9-.6-.5-.4-.7-1-.7-1.7s.3-1.3.8-1.6c.5-.4 1.3-.5 2.2-.5h2v-.3c0-1-.5-1.5-1.6-1.5-.7 0-1.4.2-2.1.7l-.7-1c.9-.7 1.9-1.1 3-1.1.9 0 1.6.2 2.1.7.5.4.8 1.1.8 2.1v4.7h-.1zm-1.5-2.8v-.6h-1.7c-1.1 0-1.7.3-1.7 1 0 .4.1.6.4.8.3.2.7.3 1.1.3.5 0 .9-.1 1.3-.4.4-.2.6-.6.6-1.1zM319.2 88.3h-1.5V78.1h1.5z"/>
        </g>
        <path fill="#006AFF" d="M124.7 38.1c-6.1-12.5-16.1-21.4-26-25.4C80.9 5.5 49.9.7 20.1.7c-3.8 0-7.3.1-10.5.3C2.1 1.4-2 9.9 2.2 16.1c6 8.9 14.2 19.3 25 30.8C52.8 74.1 78.4 91 88.4 94.4c5.3 1.8 10.2 2.7 14.6 2.7 5.6 0 10.1-1.4 14.1-4.5 5.1-3.9 9.3-10.5 12.2-19.1 3.1-9.6 1.4-23.2-4.6-35.4zm-11.6 21.1c-1.9 5.1-4.5 8.9-7.6 11.2-2.4 1.8-5.1 2.5-8.5 2.4-2.6-.1-5.6-.7-8.7-1.9-2.8-1.1-7.8-4.1-13.8-8.8-.3-.3-.1-.8.3-.8l9.5.4c2.3.1 4.5-1.4 5.1-3.6.8-3.1-1.5-6-4.5-6.1l-22.3-1c-.5 0-1-.2-1.4-.6-2.5-2.5-5.1-5.2-7.7-8.1-.3-.3 0-.8.3-.7l13.6.6c2.8.1 5.1-2.1 5.1-4.9 0-2.6-2.1-4.7-4.6-4.9l-22.4-1c-.6 0-1.3-.4-1.6-.9-2.2-2.9-4.1-5.7-5.7-8.2-2.4-3.8.2-8.8 4.7-8.9h6.3c17.8.5 36.4 4.7 46.9 8.6 6 2.2 11.6 8.1 15.1 15.7 3.2 7.7 4 15.9 1.9 21.5z"/>
        <path fill="url(#a)" d="M25.5.7h.4-.4z"/>
        <path fill="#FFF" d="M12.1 2.8s-8.9-.9-8.2 8.1c.1 0 2.4-7 8.2-8.1z"/>
        <path fill="#CCE1FF" d="M45.5 18.1h6.3c17.8.5 36.4 4.7 46.9 8.6 4.3 1.6 8.4 5.1 11.7 9.7-3.5-6.9-8.8-12.1-14.3-14.2-10.5-3.9-29-8.1-46.9-8.6-2.3-.1-4.4-.1-6.3 0-4.5.1-7.1 5.1-4.7 8.9.6 1 1.3 2.1 2.1 3.1-1.3-3.5 1.2-7.4 5.2-7.5z"/>
        <g fill="#000040">
            <path d="M205.2 46.2c0 3.6-.6 6.9-1.8 9.9-1.2 3-2.9 5.6-5 7.8-2.2 2.2-4.8 3.8-7.8 5-3 1.2-6.4 1.8-10.1 1.8h-18.7V21.8h18.7c3.7 0 7.1.6 10.1 1.8 3 1.2 5.7 2.9 7.8 5 2.2 2.2 3.8 4.7 5 7.7 1.2 3 1.8 6.3 1.8 9.9zm-9.3 0c0-2.7-.4-5.1-1.1-7.2-.7-2.1-1.7-3.9-3.1-5.4-1.3-1.5-3-2.6-4.9-3.4-1.9-.8-4.1-1.2-6.4-1.2h-9.5v34.5h9.5c2.4 0 4.5-.4 6.4-1.2 1.9-.8 3.5-1.9 4.9-3.4 1.3-1.5 2.4-3.3 3.1-5.4.8-2.2 1.1-4.6 1.1-7.3zM222.1 25.8c0 .7-.1 1.4-.4 2-.3.6-.7 1.2-1.2 1.7s-1.1.9-1.7 1.1c-.7.3-1.4.4-2.1.4-.7 0-1.4-.1-2-.4-.6-.3-1.2-.7-1.7-1.1-.5-.5-.9-1-1.1-1.7-.3-.6-.4-1.3-.4-2s.1-1.4.4-2.1c.3-.7.7-1.2 1.1-1.7.5-.5 1-.9 1.7-1.1.6-.3 1.3-.4 2-.4s1.4.1 2.1.4c.7.3 1.2.7 1.7 1.1.5.5.9 1 1.2 1.7.2.6.4 1.3.4 2.1zm-1.3 10.1v34.7h-8.4V35.9h8.4zM230.2 70.6V35.9h5.1c1.1 0 1.8.5 2.1 1.5l.5 2.6c.6-.7 1.2-1.3 1.9-1.9.7-.6 1.4-1 2.1-1.5.8-.4 1.6-.7 2.4-1 .9-.2 1.8-.4 2.9-.4 2.2 0 4 .6 5.4 1.8 1.4 1.2 2.5 2.8 3.2 4.7.5-1.2 1.2-2.1 2-3 .8-.8 1.7-1.5 2.7-2 1-.5 2-.9 3.1-1.2 1.1-.2 2.2-.4 3.3-.4 1.9 0 3.6.3 5.1.9 1.5.6 2.7 1.4 3.8 2.6 1 1.1 1.8 2.5 2.3 4.1.5 1.6.8 3.5.8 5.6v22.1h-8.4V48.3c0-2.2-.5-3.9-1.5-5s-2.4-1.7-4.3-1.7c-.9 0-1.7.1-2.4.4-.7.3-1.4.7-1.9 1.3-.6.6-1 1.2-1.3 2.1-.3.8-.5 1.8-.5 2.9v22.1h-8.4V48.3c0-2.3-.5-4-1.4-5.1-.9-1.1-2.3-1.6-4.1-1.6-1.2 0-2.3.3-3.4.9-1 .6-2 1.4-2.9 2.5v25.4h-8.2v.2z"/>
        </g>
        <path fill="#006AFF" d="M314.9 45.6c-2.4-2.5-5.6-4-9.7-4.3l11-12.3.1-.1v-7H287v8.3h16.9l-10.5 12.2-.1.1v7.1l.6-.2c1.6-.5 3.3-.7 5-.7 3.5 0 6.2.7 8.1 2.1 1.9 1.4 2.8 3.2 2.8 5.5s-.8 4-2.5 5.3c-1.7 1.2-4 1.9-6.7 1.9-4.2 0-8.3-1.4-12.2-4.1l-.5-.3-3.9 7.5.4.2c5.1 3.4 10.4 5.1 15.7 5.1 5.3 0 9.8-1.5 13.2-4.3 3.4-2.9 5.2-6.9 5.2-12 .3-4-1-7.3-3.6-10z"/>
        <g>
            <path fill="#F2F2F5" d="M105.9 118.2c20.4-.3 33.3-2.9 33.2-6.2-.1-3.3-18.7-6.4-39.1-6.1-20.4.3-60.7 2.5-60.7 5.8s46.2 6.8 66.6 6.5z"/>
            <path fill="#E5E5EC" d="M106.9 113.7c14-.2 22.8-1.8 22.8-3.9 0-2.1-12.8-4-26.8-3.8-14 .2-41.6 1.6-41.6 3.7.1 2.1 31.6 4.2 45.6 4z"/>
        </g>
    </g>
</svg>
